# Blender 4.1.1
# www.blender.org
mtllib blue.mtl
o Gemstone_02.003
v 0.107999 0.011653 0.416211
v 0.107999 0.011653 0.416211
v 0.107999 0.011653 0.416211
v 0.107999 0.011653 0.416211
v 0.107999 0.011653 0.416211
v 0.004490 0.057652 0.358429
v 0.004490 0.057652 0.358429
v 0.004490 0.057652 0.358429
v 0.004490 0.057652 0.358429
v 0.145489 0.089687 0.226768
v 0.145489 0.089687 0.226768
v 0.145489 0.089687 0.226768
v 0.145489 0.089687 0.226768
v 0.150926 -0.107327 0.528519
v 0.150926 -0.107327 0.528519
v 0.150926 -0.107327 0.528519
v 0.150926 -0.107327 0.528519
v 0.267742 -0.059435 0.329527
v 0.267742 -0.059435 0.329527
v 0.267742 -0.059435 0.329527
v 0.267742 -0.059435 0.329527
v 0.267742 -0.059435 0.329527
v 0.010878 -0.148023 0.681052
v 0.010878 -0.148023 0.681052
v 0.010878 -0.148023 0.681052
v 0.010878 -0.148023 0.681052
v 0.010878 -0.148023 0.681052
v -0.137959 -0.107362 0.528533
v -0.137959 -0.107362 0.528533
v -0.137959 -0.107362 0.528533
v -0.137959 -0.107362 0.528533
v -0.097521 0.011653 0.416211
v -0.097521 0.011653 0.416211
v -0.097521 0.011653 0.416211
v -0.097521 0.011653 0.416211
v -0.097521 0.011653 0.416211
v 0.010878 -0.181427 0.672924
v 0.010878 -0.181427 0.672924
v 0.010878 -0.181427 0.672924
v 0.010878 -0.181427 0.672924
v 0.010878 -0.181427 0.672924
v -0.137959 -0.147470 0.518774
v -0.137959 -0.147470 0.518774
v -0.137959 -0.147470 0.518774
v -0.137959 -0.147470 0.518774
v 0.150926 -0.147495 0.518745
v 0.150926 -0.147495 0.518745
v 0.150926 -0.147495 0.518745
v 0.150926 -0.147495 0.518745
v 0.107999 -0.201577 0.364329
v 0.107999 -0.201577 0.364329
v 0.107999 -0.201577 0.364329
v 0.107999 -0.201577 0.364329
v 0.107999 -0.201577 0.364329
v -0.097521 -0.201577 0.364329
v -0.097521 -0.201577 0.364329
v -0.097521 -0.201577 0.364329
v -0.097521 -0.201577 0.364329
v -0.097521 -0.201577 0.364329
v 0.004490 -0.215887 0.291873
v 0.004490 -0.215887 0.291873
v 0.004490 -0.215887 0.291873
v 0.004490 -0.215887 0.291873
v -0.141689 -0.183852 0.160212
v -0.141689 -0.183852 0.160212
v -0.141689 -0.183852 0.160212
v -0.141689 -0.183852 0.160212
v -0.263267 -0.098510 0.319911
v -0.263267 -0.098510 0.319911
v -0.263267 -0.098510 0.319911
v -0.263267 -0.098510 0.319911
v -0.263267 -0.098510 0.319911
v -0.263267 -0.059485 0.329406
v -0.263267 -0.059485 0.329406
v -0.263267 -0.059485 0.329406
v -0.263267 -0.059485 0.329406
v -0.263267 -0.059485 0.329406
v -0.353962 -0.043535 0.088887
v -0.353962 -0.043535 0.088887
v -0.353962 -0.043535 0.088887
v -0.353962 -0.043535 0.088887
v -0.248573 -0.127472 0.059763
v -0.248573 -0.127472 0.059763
v -0.248573 -0.127472 0.059763
v -0.248573 -0.127472 0.059763
v -0.248573 -0.127472 0.059763
v -0.205489 -0.119897 -0.102639
v -0.205489 -0.119897 -0.102639
v -0.205489 -0.119897 -0.102639
v -0.205489 -0.119897 -0.102639
v -0.379251 -0.002447 -0.074137
v -0.379251 -0.002447 -0.074137
v -0.379251 -0.002447 -0.074137
v -0.379251 -0.002447 -0.074137
v -0.379251 -0.002447 -0.074137
v -0.379251 0.036228 -0.064727
v -0.379251 0.036228 -0.064727
v -0.379251 0.036228 -0.064727
v -0.379251 0.036228 -0.064727
v -0.379251 0.036228 -0.064727
v -0.350954 0.030587 -0.214603
v -0.350954 0.030587 -0.214603
v -0.350954 0.030587 -0.214603
v -0.350954 0.030587 -0.214603
v -0.250509 -0.065448 -0.195149
v -0.250509 -0.065448 -0.195149
v -0.250509 -0.065448 -0.195149
v -0.250509 -0.065448 -0.195149
v -0.250509 -0.065448 -0.195149
v -0.146013 -0.085950 -0.242158
v -0.146013 -0.085950 -0.242158
v -0.146013 -0.085950 -0.242158
v -0.146013 -0.085950 -0.242158
v -0.268878 0.060526 -0.332969
v -0.268878 0.060526 -0.332969
v -0.268878 0.060526 -0.332969
v -0.268878 0.060526 -0.332969
v -0.268878 0.060526 -0.332969
v -0.268878 0.099209 -0.323556
v -0.268878 0.099209 -0.323556
v -0.268878 0.099209 -0.323556
v -0.268878 0.099209 -0.323556
v -0.268878 0.099209 -0.323556
v -0.146790 0.078854 -0.412979
v -0.146790 0.078854 -0.412979
v -0.146790 0.078854 -0.412979
v -0.146790 0.078854 -0.412979
v -0.105184 -0.031090 -0.336355
v -0.105184 -0.031090 -0.336355
v -0.105184 -0.031090 -0.336355
v -0.105184 -0.031090 -0.336355
v -0.105184 -0.031090 -0.336355
v -0.002424 -0.071888 -0.299948
v -0.002424 -0.071888 -0.299948
v -0.002424 -0.071888 -0.299948
v -0.002424 -0.071888 -0.299948
v -0.002424 0.086619 -0.440209
v -0.002424 0.086619 -0.440209
v -0.002424 0.086619 -0.440209
v -0.002424 0.086619 -0.440209
v -0.002424 0.086619 -0.440209
v -0.002424 0.125302 -0.430797
v -0.002424 0.125302 -0.430797
v -0.002424 0.125302 -0.430797
v -0.002424 0.125302 -0.430797
v -0.002424 0.125302 -0.430797
v 0.141942 0.078854 -0.412979
v 0.141942 0.078854 -0.412979
v 0.141942 0.078854 -0.412979
v 0.141942 0.078854 -0.412979
v 0.100336 -0.031090 -0.336355
v 0.100336 -0.031090 -0.336355
v 0.100336 -0.031090 -0.336355
v 0.100336 -0.031090 -0.336355
v 0.100336 -0.031090 -0.336355
v 0.141165 -0.085950 -0.242158
v 0.141165 -0.085950 -0.242158
v 0.141165 -0.085950 -0.242158
v 0.141165 -0.085950 -0.242158
v 0.264031 0.060526 -0.332969
v 0.264031 0.060526 -0.332969
v 0.264031 0.060526 -0.332969
v 0.264031 0.060526 -0.332969
v 0.264031 0.060526 -0.332969
v 0.264031 0.099209 -0.323556
v 0.264031 0.099209 -0.323556
v 0.264031 0.099209 -0.323556
v 0.264031 0.099209 -0.323556
v 0.264031 0.099209 -0.323556
v 0.346107 0.030587 -0.214603
v 0.346107 0.030587 -0.214603
v 0.346107 0.030587 -0.214603
v 0.346107 0.030587 -0.214603
v 0.245661 -0.065448 -0.195149
v 0.245661 -0.065448 -0.195149
v 0.245661 -0.065448 -0.195149
v 0.245661 -0.065448 -0.195149
v 0.245661 -0.065448 -0.195149
v 0.200642 -0.119897 -0.102639
v 0.200642 -0.119897 -0.102639
v 0.200642 -0.119897 -0.102639
v 0.200642 -0.119897 -0.102639
v 0.374424 -0.002607 -0.073378
v 0.374424 -0.002607 -0.073378
v 0.374424 -0.002607 -0.073378
v 0.374424 -0.002607 -0.073378
v 0.374424 -0.002607 -0.073378
v 0.374424 0.036021 -0.063979
v 0.374424 0.036021 -0.063979
v 0.374424 0.036021 -0.063979
v 0.374424 0.036021 -0.063979
v 0.374424 0.036021 -0.063979
v 0.350681 -0.043627 0.088860
v 0.350681 -0.043627 0.088860
v 0.350681 -0.043627 0.088860
v 0.350681 -0.043627 0.088860
v 0.247597 -0.127472 0.059763
v 0.247597 -0.127472 0.059763
v 0.247597 -0.127472 0.059763
v 0.247597 -0.127472 0.059763
v 0.247597 -0.127472 0.059763
v 0.145489 -0.183852 0.160212
v 0.145489 -0.183852 0.160212
v 0.145489 -0.183852 0.160212
v 0.145489 -0.183852 0.160212
v 0.267742 -0.098610 0.319996
v 0.267742 -0.098610 0.319996
v 0.267742 -0.098610 0.319996
v 0.267742 -0.098610 0.319996
v 0.267742 -0.098610 0.319996
v 0.350681 -0.002082 0.098969
v 0.350681 -0.002082 0.098969
v 0.350681 -0.002082 0.098969
v 0.350681 -0.002082 0.098969
v 0.247597 0.085758 0.111645
v 0.247597 0.085758 0.111645
v 0.247597 0.085758 0.111645
v 0.247597 0.085758 0.111645
v 0.247597 0.085758 0.111645
v 0.200642 0.153643 -0.036083
v 0.200642 0.153643 -0.036083
v 0.200642 0.153643 -0.036083
v 0.200642 0.153643 -0.036083
v 0.141165 0.187590 -0.175602
v 0.141165 0.187590 -0.175602
v 0.141165 0.187590 -0.175602
v 0.141165 0.187590 -0.175602
v 0.245661 0.147782 -0.143267
v 0.245661 0.147782 -0.143267
v 0.245661 0.147782 -0.143267
v 0.245661 0.147782 -0.143267
v 0.245661 0.147782 -0.143267
v 0.346107 0.071421 -0.204667
v 0.346107 0.071421 -0.204667
v 0.346107 0.071421 -0.204667
v 0.346107 0.071421 -0.204667
v 0.100336 0.182140 -0.284473
v 0.100336 0.182140 -0.284473
v 0.100336 0.182140 -0.284473
v 0.100336 0.182140 -0.284473
v 0.100336 0.182140 -0.284473
v -0.002424 0.201651 -0.233392
v -0.002424 0.201651 -0.233392
v -0.002424 0.201651 -0.233392
v -0.002424 0.201651 -0.233392
v -0.105184 0.182140 -0.284473
v -0.105184 0.182140 -0.284473
v -0.105184 0.182140 -0.284473
v -0.105184 0.182140 -0.284473
v -0.105184 0.182140 -0.284473
v -0.146013 0.187590 -0.175602
v -0.146013 0.187590 -0.175602
v -0.146013 0.187590 -0.175602
v -0.146013 0.187590 -0.175602
v -0.250509 0.147782 -0.143267
v -0.250509 0.147782 -0.143267
v -0.250509 0.147782 -0.143267
v -0.250509 0.147782 -0.143267
v -0.250509 0.147782 -0.143267
v -0.205489 0.153643 -0.036083
v -0.205489 0.153643 -0.036083
v -0.205489 0.153643 -0.036083
v -0.205489 0.153643 -0.036083
v -0.248573 0.085758 0.111645
v -0.248573 0.085758 0.111645
v -0.248573 0.085758 0.111645
v -0.248573 0.085758 0.111645
v -0.248573 0.085758 0.111645
v -0.141689 0.089687 0.226768
v -0.141689 0.089687 0.226768
v -0.141689 0.089687 0.226768
v -0.141689 0.089687 0.226768
v -0.353962 -0.002176 0.098950
v -0.353962 -0.002176 0.098950
v -0.353962 -0.002176 0.098950
v -0.353962 -0.002176 0.098950
v -0.350954 0.071421 -0.204667
v -0.350954 0.071421 -0.204667
v -0.350954 0.071421 -0.204667
v -0.350954 0.071421 -0.204667
v -0.146790 0.119689 -0.403044
v -0.146790 0.119689 -0.403044
v -0.146790 0.119689 -0.403044
v -0.146790 0.119689 -0.403044
v 0.141942 0.119689 -0.403044
v 0.141942 0.119689 -0.403044
v 0.141942 0.119689 -0.403044
v 0.141942 0.119689 -0.403044
vn 0.0001 0.8432 0.5376
vn -0.0000 0.8432 0.5376
vn 0.1734 0.8981 0.4042
vn 0.5356 0.7307 0.4233
vn 0.5624 0.6658 0.4904
vn 0.4252 0.6977 0.5766
vn -0.7275 -0.1622 0.6667
vn -0.4128 0.6954 0.5882
vn 0.7480 -0.1569 0.6449
vn -0.4128 -0.8879 0.2030
vn 0.4252 -0.8846 0.1916
vn 0.0001 -0.9959 0.0901
vn -0.0000 -0.9959 0.0901
vn -0.1722 -0.9839 -0.0482
vn -0.5253 -0.8492 0.0539
vn -0.5253 -0.8492 0.0538
vn -0.5501 -0.8226 0.1441
vn -0.9342 -0.0844 0.3467
vn -0.8530 -0.1234 0.5071
vn -0.6131 -0.7882 0.0531
vn -0.3576 -0.9236 -0.1379
vn -0.5710 -0.7987 -0.1899
vn -0.5710 -0.7986 -0.1900
vn -0.5710 -0.7986 -0.1901
vn -0.6360 -0.7659 -0.0944
vn -0.9813 0.0455 -0.1870
vn -0.9889 -0.0352 0.1445
vn -0.6296 -0.7184 -0.2958
vn -0.3308 -0.8748 -0.3539
vn -0.4038 -0.7022 -0.5864
vn -0.4037 -0.7022 -0.5865
vn -0.5283 -0.6606 -0.5334
vn -0.8299 0.1319 -0.5421
vn -0.5579 0.1962 -0.8064
vn -0.3621 -0.6213 -0.6949
vn -0.0000 -0.6627 -0.7489
vn -0.1370 -0.8290 -0.5422
vn -0.1175 -0.5974 -0.7933
vn 0.1923 0.2320 -0.9535
vn -0.1923 0.2320 -0.9535
vn 0.1175 -0.5974 -0.7933
vn 0.1370 -0.8290 -0.5422
vn 0.4038 -0.7022 -0.5864
vn 0.3621 -0.6213 -0.6949
vn 0.5579 0.1962 -0.8064
vn 0.8299 0.1319 -0.5421
vn 0.5283 -0.6606 -0.5334
vn 0.3308 -0.8748 -0.3539
vn 0.5710 -0.7967 -0.1981
vn 0.5710 -0.7967 -0.1979
vn 0.5710 -0.7967 -0.1982
vn 0.6298 -0.7185 -0.2952
vn 0.9815 0.0453 -0.1862
vn 0.9901 -0.0332 0.1365
vn 0.6444 -0.7584 -0.0975
vn 0.3627 -0.9201 -0.1478
vn 0.5356 -0.8435 0.0402
vn 0.6240 -0.7805 0.0383
vn 0.9441 -0.0779 0.3202
vn 0.8685 -0.1172 0.4816
vn 0.5624 -0.8166 0.1297
vn -0.0000 -0.9717 -0.2364
vn 0.1734 -0.9834 -0.0535
vn 0.6240 0.6757 0.3926
vn 0.6444 0.7184 0.2619
vn 0.3627 0.8852 0.2915
vn 0.5710 0.7986 0.1901
vn 0.5710 0.7986 0.1900
vn 0.5710 0.7987 0.1899
vn -0.0000 0.9717 0.2364
vn 0.3308 0.9396 0.0876
vn 0.4038 0.8931 -0.1982
vn 0.6298 0.7738 0.0679
vn 0.5283 0.8318 -0.1703
vn 0.1370 0.9854 -0.1007
vn -0.0000 0.9327 -0.3607
vn -0.1370 0.9854 -0.1007
vn -0.3308 0.9396 0.0876
vn -0.4038 0.8931 -0.1982
vn -0.3576 0.8838 0.3018
vn -0.5710 0.7967 0.1979
vn -0.5710 0.7967 0.1982
vn -0.5710 0.7967 0.1981
vn -0.5710 0.7966 0.1983
vn -0.1722 0.8960 0.4092
vn -0.5253 0.7295 0.4380
vn -0.6131 0.6757 0.4093
vn -0.6360 0.7236 0.2681
vn -0.6296 0.7740 0.0673
vn -0.5283 0.8318 -0.1703
vn -0.1175 0.8951 -0.4302
vn -0.3621 0.8711 -0.3317
vn 0.1175 0.8951 -0.4302
vn 0.3621 0.8711 -0.3317
vn -0.5501 0.6644 0.5059
vt 0.286977 0.326490
vt 0.347649 0.364664
vt 0.336953 0.396088
vt 0.303929 0.396800
vt 0.386721 0.401544
vt 0.394946 0.341991
vt 0.426979 0.407525
vt 0.333001 0.323163
vt 0.268864 0.369254
vt 0.256792 0.366216
vt 0.282165 0.318795
vt 0.334342 0.312342
vt 0.014230 0.329556
vt 0.074144 0.340886
vt 0.085063 0.385527
vt 0.002582 0.387745
vt 0.039649 0.415187
vt 0.072986 0.416291
vt 0.123844 0.424642
vt 0.136579 0.366640
vt 0.164494 0.432592
vt 0.287174 0.508318
vt 0.275411 0.513595
vt 0.254486 0.438954
vt 0.266583 0.437520
vt 0.193774 0.408938
vt 0.175971 0.475088
vt 0.225083 0.445343
vt 0.201874 0.491086
vt 0.345236 0.575334
vt 0.339023 0.586496
vt 0.303969 0.557450
vt 0.313030 0.549494
vt 0.239546 0.484795
vt 0.182891 0.514593
vt 0.238730 0.526883
vt 0.190365 0.543838
vt 0.384329 0.587729
vt 0.382677 0.599785
vt 0.425225 0.585102
vt 0.428294 0.597570
vt 0.221755 0.565472
vt 0.160593 0.547446
vt 0.191734 0.595106
vt 0.145352 0.573269
vt 0.469280 0.577092
vt 0.462135 0.567201
vt 0.489831 0.536932
vt 0.500703 0.543813
vt 0.152528 0.610698
vt 0.121625 0.554723
vt 0.110349 0.610698
vt 0.092460 0.562509
vt 0.504116 0.498343
vt 0.516137 0.500584
vt 0.503443 0.457130
vt 0.516137 0.454734
vt 0.071502 0.594449
vt 0.088313 0.532230
vt 0.041112 0.565126
vt 0.053183 0.505169
vt 0.487577 0.418365
vt 0.498111 0.412058
vt 0.455440 0.381889
vt 0.464149 0.372123
vt 0.020204 0.522233
vt 0.061238 0.465450
vt 0.002909 0.454061
vt 0.399972 0.331237
vt 0.440008 0.450053
vt 0.466669 0.464821
vt 0.326721 0.446431
vt 0.448991 0.489107
vt 0.429069 0.522962
vt 0.391195 0.532658
vt 0.356570 0.512809
vt 0.458108 0.517599
vt 0.415785 0.549298
vt 0.363032 0.542517
vt 0.320176 0.487729
s 1
usemtl V_02.001
f 23/1/1 1/2/2 6/3/2
f 23/1/1 6/3/2 32/4/2
f 8/3/3 2/2/3 11/5/3
f 13/5/4 4/2/4 18/6/4
f 13/5/4 18/6/4 216/7/4
s 0
f 15/8/5 19/6/5 5/2/5
f 14/8/6 3/2/6 24/1/6
f 30/9/7 44/10/7 41/11/7
f 30/9/7 41/11/7 27/1/7
f 26/1/8 34/4/8 28/9/8
f 48/12/9 16/8/9 25/1/9
f 48/12/9 25/1/9 39/11/9
f 40/13/10 42/14/10 57/15/10
f 46/16/11 38/13/11 52/17/11
s 1
f 37/13/12 55/15/13 60/18/13
f 37/13/12 60/18/13 50/17/13
s 0
f 65/19/14 63/18/14 56/15/14
s 1
f 67/19/15 58/15/15 68/20/16
f 67/19/15 68/20/16 83/21/15
s 0
f 69/20/17 59/15/17 43/14/17
f 275/22/18 80/23/18 72/24/18
f 275/22/18 72/24/18 77/25/18
f 76/25/19 71/24/19 45/10/19
f 76/25/19 45/10/19 31/9/19
f 78/26/20 85/21/20 70/20/20
f 89/27/21 66/19/21 82/21/21
s 1
f 90/27/22 84/21/23 91/28/24
f 90/27/22 91/28/24 108/29/23
s 0
f 79/26/25 93/28/25 86/21/25
f 280/30/26 104/31/26 94/32/26
f 280/30/26 94/32/26 99/33/26
f 100/33/27 95/32/27 81/23/27
f 100/33/27 81/23/27 276/22/27
f 102/34/28 109/29/28 92/28/28
f 112/35/29 88/27/29 105/29/29
s 1
f 113/35/30 106/29/31 115/36/30
f 113/35/30 115/36/30 132/37/30
s 0
f 101/34/32 116/36/32 107/29/32
f 123/38/33 118/39/33 103/31/33
f 123/38/33 103/31/33 279/30/33
f 284/40/34 127/41/34 117/39/34
f 284/40/34 117/39/34 122/38/34
f 126/42/35 131/37/35 114/36/35
s 1
f 133/43/36 128/37/36 137/44/36
f 133/43/36 137/44/36 151/45/36
s 0
f 136/43/37 111/35/37 130/37/37
s 1
f 124/42/38 140/44/38 129/37/38
s 0
f 139/46/39 144/47/39 286/48/39
f 139/46/39 286/48/39 148/49/39
f 146/47/40 141/46/40 125/41/40
f 146/47/40 125/41/40 282/40/40
f 147/50/41 152/45/41 138/44/41
f 157/51/42 135/43/42 153/45/42
s 1
f 159/51/43 155/45/43 161/52/43
f 159/51/43 161/52/43 175/53/43
s 0
f 149/50/44 160/52/44 154/45/44
f 168/54/45 163/55/45 150/49/45
f 168/54/45 150/49/45 288/48/45
f 164/55/46 169/54/46 235/56/46
f 164/55/46 235/56/46 172/57/46
f 170/58/47 176/53/47 162/52/47
f 180/59/48 158/51/48 174/53/48
s 1
f 182/59/49 177/53/49 183/60/50
f 182/59/49 183/60/50 199/61/51
s 0
f 171/58/52 184/60/52 178/53/52
f 173/57/53 236/56/53 191/62/53
f 173/57/53 191/62/53 186/63/53
f 187/63/54 192/62/54 214/64/54
f 187/63/54 214/64/54 196/65/54
f 194/66/55 201/61/55 185/60/55
f 204/67/56 181/59/56 197/61/56
s 1
f 205/67/57 198/61/57 206/68/57
f 205/67/57 206/68/57 53/17/57
s 0
f 193/66/58 208/68/58 200/61/58
f 195/65/59 213/64/59 22/6/59
f 195/65/59 22/6/59 210/69/59
f 209/69/60 21/6/60 17/8/60
f 209/69/60 17/8/60 49/12/60
f 47/16/61 54/17/61 207/68/61
f 202/67/62 61/18/62 64/19/62
f 64/19/62 87/27/62 110/35/62
f 110/35/62 134/43/62 156/51/62
f 156/51/62 179/59/62 202/67/62
f 202/67/62 64/19/62 110/35/62
f 110/35/62 156/51/62 202/67/62
f 62/18/63 203/67/63 51/17/63
f 211/64/64 218/7/64 20/6/64
f 212/64/65 190/62/65 219/7/65
f 12/5/66 215/7/66 222/70/66
s 1
f 223/70/67 217/7/68 188/62/69
f 223/70/67 188/62/69 231/71/68
s 0
f 269/72/70 7/3/70 10/5/70
f 10/5/70 220/70/70 224/73/70
f 224/73/70 243/74/70 251/75/70
f 251/75/70 260/76/70 269/72/70
f 269/72/70 10/5/70 224/73/70
f 224/73/70 251/75/70 269/72/70
f 221/70/71 228/71/71 226/73/71
s 1
f 227/73/72 229/71/72 166/54/72
f 227/73/72 166/54/72 241/77/72
s 0
f 234/56/73 232/71/73 189/62/73
f 233/56/74 167/54/74 230/71/74
f 225/73/75 239/77/75 244/74/75
s 1
f 242/74/76 237/77/76 142/47/76
f 242/74/76 142/47/76 246/78/76
s 0
f 245/74/77 248/78/77 252/75/77
f 253/75/78 255/79/78 261/76/78
s 1
f 254/75/79 250/78/79 120/38/79
f 254/75/79 120/38/79 256/79/79
s 0
f 262/76/80 264/80/80 271/72/80
s 1
f 263/76/81 258/79/82 96/33/83
f 263/76/81 96/33/83 266/80/84
s 0
f 270/72/85 33/4/85 9/3/85
s 1
f 272/72/86 265/80/86 73/25/86
f 272/72/86 73/25/86 35/4/86
s 0
f 273/22/87 75/25/87 267/80/87
f 274/22/88 268/80/88 98/33/88
f 278/30/89 97/33/89 259/79/89
f 277/30/90 257/79/90 121/38/90
s 1
f 281/40/91 247/78/91 145/47/91
s 0
f 283/40/92 119/38/92 249/78/92
f 285/48/93 143/47/93 238/77/93
f 287/48/94 240/77/94 165/54/94
f 74/25/95 29/9/95 36/4/95
