# Blender 4.1.1
# www.blender.org
mtllib pink.mtl
o Gemstone_01.005
v 0.314715 0.159137 -0.095439
v 0.314715 0.159137 -0.095439
v 0.314715 0.159137 -0.095439
v 0.314715 0.159137 -0.095439
v 0.314715 0.159137 -0.095439
v 0.257605 0.166571 0.040532
v 0.257605 0.166571 0.040532
v 0.257605 0.166571 0.040532
v 0.257605 0.166571 0.040532
v 0.182154 0.209635 -0.136458
v 0.182154 0.209635 -0.136458
v 0.182154 0.209635 -0.136458
v 0.182154 0.209635 -0.136458
v 0.432855 0.062718 -0.169263
v 0.432855 0.062718 -0.169263
v 0.432855 0.062718 -0.169263
v 0.432855 0.062718 -0.169263
v 0.467323 0.018727 0.004559
v 0.467323 0.018727 0.004559
v 0.467323 0.018727 0.004559
v 0.467323 0.018727 0.004559
v 0.467323 0.018727 0.004559
v 0.330448 0.096851 -0.316520
v 0.330448 0.096851 -0.316520
v 0.330448 0.096851 -0.316520
v 0.330448 0.096851 -0.316520
v 0.330448 0.096851 -0.316520
v 0.331371 0.068994 -0.324248
v 0.331371 0.068994 -0.324248
v 0.331371 0.068994 -0.324248
v 0.331371 0.068994 -0.324248
v 0.331371 0.068994 -0.324248
v 0.179295 0.122664 -0.415635
v 0.179295 0.122664 -0.415635
v 0.179295 0.122664 -0.415635
v 0.179295 0.122664 -0.415635
v 0.130360 0.202721 -0.274568
v 0.130360 0.202721 -0.274568
v 0.130360 0.202721 -0.274568
v 0.130360 0.202721 -0.274568
v 0.130360 0.202721 -0.274568
v 0.000001 0.227473 -0.209769
v 0.000001 0.227473 -0.209769
v 0.000001 0.227473 -0.209769
v 0.000001 0.227473 -0.209769
v 0.000001 0.129210 -0.449515
v 0.000001 0.129210 -0.449515
v 0.000001 0.129210 -0.449515
v 0.000001 0.129210 -0.449515
v 0.000001 0.129210 -0.449515
v -0.179293 0.122664 -0.415635
v -0.179293 0.122664 -0.415635
v -0.179293 0.122664 -0.415635
v -0.179293 0.122664 -0.415635
v 0.000001 0.101444 -0.457615
v 0.000001 0.101444 -0.457615
v 0.000001 0.101444 -0.457615
v 0.000001 0.101444 -0.457615
v 0.000001 0.101444 -0.457615
v -0.130358 0.202721 -0.274568
v -0.130358 0.202721 -0.274568
v -0.130358 0.202721 -0.274568
v -0.130358 0.202721 -0.274568
v -0.130358 0.202721 -0.274568
v -0.182152 0.209635 -0.136458
v -0.182152 0.209635 -0.136458
v -0.182152 0.209635 -0.136458
v -0.182152 0.209635 -0.136458
v -0.330445 0.096851 -0.316520
v -0.330445 0.096851 -0.316520
v -0.330445 0.096851 -0.316520
v -0.330445 0.096851 -0.316520
v -0.330445 0.096851 -0.316520
v -0.432853 0.062718 -0.169263
v -0.432853 0.062718 -0.169263
v -0.432853 0.062718 -0.169263
v -0.432853 0.062718 -0.169263
v -0.331368 0.068994 -0.324248
v -0.331368 0.068994 -0.324248
v -0.331368 0.068994 -0.324248
v -0.331368 0.068994 -0.324248
v -0.331368 0.068994 -0.324248
v -0.314713 0.159137 -0.095439
v -0.314713 0.159137 -0.095439
v -0.314713 0.159137 -0.095439
v -0.314713 0.159137 -0.095439
v -0.314713 0.159137 -0.095439
v -0.257603 0.166571 0.040532
v -0.257603 0.166571 0.040532
v -0.257603 0.166571 0.040532
v -0.257603 0.166571 0.040532
v -0.467320 0.018727 0.004559
v -0.467320 0.018727 0.004559
v -0.467320 0.018727 0.004559
v -0.467320 0.018727 0.004559
v -0.467320 0.018727 0.004559
v -0.432853 -0.022059 0.179160
v -0.432853 -0.022059 0.179160
v -0.432853 -0.022059 0.179160
v -0.432853 -0.022059 0.179160
v -0.468626 -0.009348 -0.002272
v -0.468626 -0.009348 -0.002272
v -0.468626 -0.009348 -0.002272
v -0.468626 -0.009348 -0.002272
v -0.468626 -0.009348 -0.002272
v -0.314713 0.097499 0.157887
v -0.314713 0.097499 0.157887
v -0.314713 0.097499 0.157887
v -0.314713 0.097499 0.157887
v -0.314713 0.097499 0.157887
v -0.182152 0.123507 0.217521
v -0.182152 0.123507 0.217521
v -0.182152 0.123507 0.217521
v -0.182152 0.123507 0.217521
v -0.330445 -0.059396 0.325638
v -0.330445 -0.059396 0.325638
v -0.330445 -0.059396 0.325638
v -0.330445 -0.059396 0.325638
v -0.330445 -0.059396 0.325638
v -0.179293 -0.082005 0.425532
v -0.179293 -0.082005 0.425532
v -0.179293 -0.082005 0.425532
v -0.179293 -0.082005 0.425532
v -0.331368 -0.087689 0.319704
v -0.331368 -0.087689 0.319704
v -0.331368 -0.087689 0.319704
v -0.331368 -0.087689 0.319704
v -0.331368 -0.087689 0.319704
v -0.130358 0.053914 0.337016
v -0.130358 0.053914 0.337016
v -0.130358 0.053914 0.337016
v -0.130358 0.053914 0.337016
v -0.130358 0.053914 0.337016
v 0.000001 0.105669 0.290833
v 0.000001 0.105669 0.290833
v 0.000001 0.105669 0.290833
v 0.000001 0.105669 0.290833
v 0.000001 -0.091756 0.458633
v 0.000001 -0.091756 0.458633
v 0.000001 -0.091756 0.458633
v 0.000001 -0.091756 0.458633
v 0.000001 -0.091756 0.458633
v 0.179295 -0.082005 0.425532
v 0.179295 -0.082005 0.425532
v 0.179295 -0.082005 0.425532
v 0.179295 -0.082005 0.425532
v 0.000001 -0.120139 0.453071
v 0.000001 -0.120139 0.453071
v 0.000001 -0.120139 0.453071
v 0.000001 -0.120139 0.453071
v 0.000001 -0.120139 0.453071
v 0.130360 0.053914 0.337016
v 0.130360 0.053914 0.337016
v 0.130360 0.053914 0.337016
v 0.130360 0.053914 0.337016
v 0.130360 0.053914 0.337016
v 0.182154 0.123507 0.217521
v 0.182154 0.123507 0.217521
v 0.182154 0.123507 0.217521
v 0.182154 0.123507 0.217521
v 0.330448 -0.059396 0.325638
v 0.330448 -0.059396 0.325638
v 0.330448 -0.059396 0.325638
v 0.330448 -0.059396 0.325638
v 0.330448 -0.059396 0.325638
v 0.331371 -0.087689 0.319704
v 0.331371 -0.087689 0.319704
v 0.331371 -0.087689 0.319704
v 0.331371 -0.087689 0.319704
v 0.331371 -0.087689 0.319704
v 0.432856 -0.022059 0.179160
v 0.432856 -0.022059 0.179160
v 0.432856 -0.022059 0.179160
v 0.432856 -0.022059 0.179160
v 0.314715 0.097499 0.157887
v 0.314715 0.097499 0.157887
v 0.314715 0.097499 0.157887
v 0.314715 0.097499 0.157887
v 0.314715 0.097499 0.157887
v 0.433445 -0.052377 0.172035
v 0.433445 -0.052377 0.172035
v 0.433445 -0.052377 0.172035
v 0.433445 -0.052377 0.172035
v 0.468629 -0.009348 -0.002272
v 0.468629 -0.009348 -0.002272
v 0.468629 -0.009348 -0.002272
v 0.468629 -0.009348 -0.002272
v 0.468629 -0.009348 -0.002272
v 0.194419 -0.265795 0.018211
v 0.194419 -0.265795 0.018211
v 0.194419 -0.265795 0.018211
v 0.194419 -0.265795 0.018211
v 0.000001 -0.409594 -0.099658
v 0.000001 -0.409594 -0.099658
v 0.000001 -0.409594 -0.099658
v 0.000001 -0.409594 -0.099658
v 0.000001 -0.409594 -0.099658
v 0.000001 -0.409594 -0.099658
v 0.000001 -0.409594 -0.099658
v 0.000001 -0.409594 -0.099658
v 0.194419 -0.227717 -0.138285
v 0.194419 -0.227717 -0.138285
v 0.194419 -0.227717 -0.138285
v 0.194419 -0.227717 -0.138285
v -0.080529 -0.292720 0.128869
v -0.080529 -0.292720 0.128869
v -0.080529 -0.292720 0.128869
v -0.080529 -0.292720 0.128869
v -0.194417 -0.227717 -0.138285
v -0.194417 -0.227717 -0.138285
v -0.194417 -0.227717 -0.138285
v -0.194417 -0.227717 -0.138285
v 0.080532 -0.200792 -0.248944
v 0.080532 -0.200792 -0.248944
v 0.080532 -0.200792 -0.248944
v 0.080532 -0.200792 -0.248944
v 0.080532 -0.292720 0.128869
v 0.080532 -0.292720 0.128869
v 0.080532 -0.292720 0.128869
v 0.080532 -0.292720 0.128869
v -0.194417 -0.265795 0.018211
v -0.194417 -0.265795 0.018211
v -0.194417 -0.265795 0.018211
v -0.194417 -0.265795 0.018211
v -0.080529 -0.200792 -0.248944
v -0.080529 -0.200792 -0.248944
v -0.080529 -0.200792 -0.248944
v -0.080529 -0.200792 -0.248944
v -0.179537 0.092542 -0.423570
v -0.179537 0.092542 -0.423570
v -0.179537 0.092542 -0.423570
v -0.179537 0.092542 -0.423570
v -0.433442 -0.052377 0.172035
v -0.433442 -0.052377 0.172035
v -0.433442 -0.052377 0.172035
v -0.433442 -0.052377 0.172035
v 0.179539 -0.112405 0.418742
v 0.179539 -0.112405 0.418742
v 0.179539 -0.112405 0.418742
v 0.179539 -0.112405 0.418742
v 0.179539 0.092542 -0.423570
v 0.179539 0.092542 -0.423570
v 0.179539 0.092542 -0.423570
v 0.179539 0.092542 -0.423570
v -0.433442 0.032515 -0.176863
v -0.433442 0.032515 -0.176863
v -0.433442 0.032515 -0.176863
v -0.433442 0.032515 -0.176863
v -0.179537 -0.112405 0.418742
v -0.179537 -0.112405 0.418742
v -0.179537 -0.112405 0.418742
v -0.179537 -0.112405 0.418742
v 0.433444 0.032515 -0.176863
v 0.433444 0.032515 -0.176863
v 0.433444 0.032515 -0.176863
v 0.433444 0.032515 -0.176863
vn 0.3308 0.9396 0.0876
vn 0.5872 0.7865 0.1914
vn 0.5873 0.7864 0.1914
vn 0.5873 0.7864 0.1913
vn 0.4152 0.8846 -0.2121
vn 0.4152 0.8847 -0.2121
vn 0.6538 0.7542 0.0612
vn 0.5463 0.8155 -0.1909
vn 0.5592 0.2266 -0.7974
vn 0.5592 0.2267 -0.7974
vn 0.8284 0.1630 -0.5359
vn 0.3783 0.8553 -0.3542
vn 0.1370 0.9854 -0.1007
vn -0.0000 0.9253 -0.3792
vn -0.0000 0.9253 -0.3793
vn 0.1188 0.8807 -0.4586
vn -0.1904 0.2628 -0.9459
vn -0.1188 0.8807 -0.4586
vn 0.1904 0.2628 -0.9459
vn -0.1370 0.9854 -0.1007
vn -0.4152 0.8846 -0.2121
vn -0.4152 0.8847 -0.2121
vn -0.3783 0.8553 -0.3542
vn -0.8284 0.1630 -0.5359
vn -0.5463 0.8155 -0.1909
vn -0.5592 0.2267 -0.7974
vn -0.3308 0.9396 0.0876
vn -0.5873 0.7865 0.1914
vn -0.5872 0.7865 0.1914
vn -0.5872 0.7865 0.1913
vn -0.6538 0.7542 0.0612
vn -0.9812 -0.0142 0.1925
vn -0.6538 0.6980 0.2921
vn -0.9812 0.0758 -0.1775
vn -0.3308 0.8748 0.3539
vn -0.4152 0.6883 0.5948
vn -0.5463 0.6367 0.5442
vn -0.5592 -0.1651 0.8124
vn -0.5592 -0.1650 0.8124
vn -0.3783 0.5969 0.7075
vn -0.8284 -0.1014 0.5509
vn -0.1370 0.8290 0.5422
vn -0.0000 0.6476 0.7620
vn -0.1188 0.5715 0.8119
vn 0.1904 -0.2012 0.9609
vn 0.1188 0.5715 0.8119
vn -0.1904 -0.2012 0.9609
vn 0.1370 0.8290 0.5422
vn 0.4152 0.6883 0.5948
vn 0.3783 0.5969 0.7075
vn 0.8284 -0.1014 0.5508
vn 0.8284 -0.1014 0.5509
vn 0.5592 -0.1650 0.8124
vn 0.5592 -0.1651 0.8124
vn 0.5463 0.6367 0.5442
vn 0.3308 0.8748 0.3539
vn 0.6538 0.6980 0.2921
vn 0.9812 -0.0142 0.1925
vn 0.5739 -0.7922 0.2073
vn 0.6807 -0.7313 -0.0431
vn 0.6602 -0.7298 -0.1776
vn 0.4668 -0.8402 0.2760
vn 0.4668 -0.6194 -0.6312
vn 0.4668 -0.6195 -0.6311
vn 0.4668 -0.6195 -0.6312
vn -0.0000 -0.8859 0.4639
vn -0.4668 -0.8402 0.2760
vn -0.6602 -0.7298 -0.1776
vn -0.4668 -0.6194 -0.6312
vn -0.4668 -0.6195 -0.6312
vn -0.4668 -0.6195 -0.6311
vn -0.0000 -0.5737 -0.8191
vn -0.1310 -0.5394 -0.8318
vn -0.3887 -0.5646 -0.7281
vn -0.6807 -0.7313 -0.0431
vn -0.5739 -0.7922 0.2073
vn 0.1310 -0.8613 0.4910
vn 0.3887 -0.8360 0.3873
vn 0.3887 -0.5646 -0.7281
vn 0.1310 -0.5394 -0.8318
vn -0.5739 -0.6084 -0.5481
vn -0.6807 -0.6694 -0.2977
vn -0.3887 -0.8360 0.3873
vn -0.1310 -0.8613 0.4910
vn 0.6807 -0.6694 -0.2977
vn 0.5739 -0.6084 -0.5481
vn 0.9812 0.0758 -0.1775
vn -0.0000 0.9717 0.2364
vt 0.425146 0.695163
vt 0.454158 0.711292
vt 0.434241 0.738007
vt 0.475138 0.660502
vt 0.420243 0.662344
vt 0.494308 0.748834
vt 0.443577 0.769995
vt 0.493287 0.702804
vt 0.477280 0.791610
vt 0.501798 0.750184
vt 0.484611 0.796313
vt 0.501798 0.700956
vt 0.410760 0.774979
vt 0.445504 0.824913
vt 0.394707 0.804021
vt 0.403228 0.843115
vt 0.449849 0.831161
vt 0.405083 0.851625
vt 0.368016 0.784205
vt 0.357209 0.844162
vt 0.336086 0.793455
vt 0.314452 0.827114
vt 0.355859 0.851652
vt 0.309742 0.834441
vt 0.331183 0.760636
vt 0.281191 0.795297
vt 0.302171 0.744507
vt 0.263042 0.752996
vt 0.274938 0.799634
vt 0.254531 0.754843
vt 0.322088 0.717792
vt 0.262021 0.706966
vt 0.312752 0.685804
vt 0.279049 0.664189
vt 0.254531 0.705616
vt 0.271718 0.659486
vt 0.345569 0.680820
vt 0.310825 0.630886
vt 0.361622 0.651778
vt 0.353101 0.612684
vt 0.306480 0.624639
vt 0.351246 0.604174
vt 0.388313 0.671594
vt 0.399120 0.611637
vt 0.441877 0.628685
vt 0.400470 0.604147
vt 0.446587 0.621359
vt 0.481391 0.656165
vt 0.539002 0.509650
vt 0.622346 0.475125
vt 0.574583 0.545230
vt 0.620717 0.565322
vt 0.647062 0.438848
vt 0.655237 0.481977
vt 0.603932 0.447023
vt 0.717864 0.546907
vt 0.683340 0.463564
vt 0.520587 0.412503
vt 0.610784 0.414131
vt 0.576260 0.330788
vt 0.638886 0.395718
vt 0.673407 0.312373
vt 0.671778 0.402570
vt 0.755121 0.368046
vt 0.690191 0.430672
vt 0.773536 0.465193
vt 0.773536 0.414874
vt 0.623088 0.312373
vt 0.520587 0.462821
vt 0.753445 0.511326
vt 0.719541 0.332465
vt 0.540679 0.366369
vt 0.671035 0.565322
s 0
usemtl V_06.001
f 8/1/1 1/2/1 12/3/1
s 1
f 18/4/2 4/2/3 9/1/2
f 18/4/2 9/1/2 178/5/4
f 13/3/5 2/2/6 24/6/5
f 13/3/5 24/6/5 41/7/6
s 0
f 15/8/7 5/2/7 20/4/7
f 14/8/8 25/6/8 3/2/8
s 1
f 36/9/9 26/6/10 30/10/10
f 36/9/9 30/10/10 244/11/10
f 27/6/11 16/8/11 255/12/11
f 27/6/11 255/12/11 32/10/11
s 0
f 35/9/12 40/7/12 23/6/12
f 11/3/13 39/7/13 44/13/13
s 1
f 42/13/14 37/7/15 46/14/14
f 42/13/14 46/14/14 60/15/15
s 0
f 33/9/16 47/14/16 38/7/16
s 1
f 52/16/17 50/14/17 59/17/17
f 52/16/17 59/17/17 230/18/17
s 0
f 51/16/18 61/15/18 49/14/18
s 1
f 242/11/19 57/17/19 48/14/19
f 242/11/19 48/14/19 34/9/19
s 0
f 45/13/20 62/15/20 66/19/20
s 1
f 68/19/21 64/15/22 70/20/21
f 68/19/21 70/20/21 84/21/22
s 0
f 53/16/23 69/20/23 63/15/23
s 1
f 76/22/24 73/20/24 82/23/24
f 76/22/24 82/23/24 247/24/24
s 0
f 74/22/25 85/21/25 71/20/25
s 1
f 72/20/26 54/16/26 232/18/26
f 72/20/26 232/18/26 80/23/26
s 0
f 67/19/27 83/21/27 90/25/27
s 1
f 91/25/28 86/21/29 92/26/28
f 91/25/28 92/26/28 109/27/30
s 0
f 75/22/31 94/26/31 87/21/31
s 1
f 100/28/32 95/26/32 104/29/32
f 100/28/32 104/29/32 236/30/32
s 0
f 98/28/33 110/27/33 93/26/33
s 1
f 248/24/34 105/29/34 96/26/34
f 248/24/34 96/26/34 77/22/34
s 0
f 89/25/35 106/27/35 113/31/35
s 1
f 114/31/36 107/27/36 116/32/36
f 114/31/36 116/32/36 133/33/36
s 0
f 97/28/37 117/32/37 108/27/37
s 1
f 123/34/38 118/32/39 126/35/38
f 123/34/38 126/35/38 252/36/38
s 0
f 122/34/40 132/33/40 115/32/40
s 1
f 119/32/41 99/28/41 235/30/41
f 119/32/41 235/30/41 128/35/41
s 0
f 112/31/42 131/33/42 137/37/42
s 1
f 134/37/43 129/33/43 138/38/43
f 134/37/43 138/38/43 152/39/43
s 0
f 120/34/44 141/38/44 130/33/44
s 1
f 144/40/45 140/38/45 149/41/45
f 144/40/45 149/41/45 238/42/45
s 0
f 143/40/46 153/39/46 139/38/46
s 1
f 250/36/47 151/41/47 142/38/47
f 250/36/47 142/38/47 121/34/47
s 0
f 136/37/48 154/39/48 158/43/48
s 1
f 160/43/49 156/39/49 162/44/49
f 160/43/49 162/44/49 176/5/49
s 0
f 145/40/50 161/44/50 155/39/50
s 1
f 173/45/51 165/44/52 170/46/51
f 173/45/51 170/46/51 182/47/52
f 164/44/53 146/40/54 240/42/53
f 164/44/53 240/42/53 168/46/53
s 0
f 163/44/55 171/45/55 177/5/55
f 159/43/56 175/5/56 7/1/56
f 19/4/57 179/5/57 172/45/57
s 1
f 183/47/58 187/48/58 21/4/58
f 183/47/58 21/4/58 174/45/58
s 0
f 169/49/59 190/50/59 180/51/59
f 185/52/60 181/51/60 192/50/60
s 1
f 184/52/61 191/50/61 197/53/61
f 184/52/61 197/53/61 203/54/61
f 167/49/62 220/55/62 195/53/62
f 167/49/62 195/53/62 189/50/62
f 29/56/63 201/54/64 196/53/63
f 29/56/63 196/53/63 216/57/65
f 147/58/66 205/59/66 193/53/66
f 147/58/66 193/53/66 217/55/66
f 125/60/67 221/61/67 198/53/67
f 125/60/67 198/53/67 208/59/67
f 101/62/68 211/63/68 200/53/68
f 101/62/68 200/53/68 223/61/68
f 79/64/69 228/65/70 199/53/69
f 79/64/69 199/53/69 209/63/71
f 55/66/72 213/57/72 194/53/72
f 55/66/72 194/53/72 225/65/72
s 0
f 58/66/73 226/65/73 229/67/73
f 78/64/74 231/67/74 227/65/74
f 102/62/75 224/61/75 234/68/75
f 127/60/76 233/68/76 222/61/76
f 148/58/77 218/55/77 237/69/77
f 166/49/78 239/69/78 219/55/78
f 28/56/79 215/57/79 243/70/79
f 56/66/80 241/70/80 214/57/80
f 81/64/81 210/63/81 245/71/81
f 103/62/82 246/71/82 212/63/82
f 124/60/83 207/59/83 251/72/83
f 150/58/84 249/72/84 206/59/84
f 186/52/85 204/54/85 254/73/85
f 31/56/86 253/73/86 202/54/86
s 1
f 17/8/87 22/4/87 188/48/87
f 17/8/87 188/48/87 256/12/87
s 0
f 157/43/88 6/1/88 10/3/88
f 10/3/88 43/13/88 65/19/88
f 65/19/88 88/25/88 111/31/88
f 111/31/88 135/37/88 157/43/88
f 157/43/88 10/3/88 65/19/88
f 65/19/88 111/31/88 157/43/88
