# Blender 4.1.1
# www.blender.org
mtllib grid.mtl
o Cube
v -1.000000 -0.025000 1.000000
v -1.000000 0.025000 1.000000
v -1.000000 -0.025000 -1.000000
v -1.000000 0.025000 -1.000000
v 1.000000 -0.025000 1.000000
v 1.000000 0.025000 1.000000
v 1.000000 -0.025000 -1.000000
v 1.000000 0.025000 -1.000000
v -0.950000 -0.023750 0.950000
v -0.950000 0.023750 0.950000
v -0.950000 -0.023750 -0.950000
v -0.950000 0.023750 -0.950000
v 0.950000 -0.023750 0.950000
v 0.950000 0.023750 0.950000
v 0.950000 -0.023750 -0.950000
v 0.950000 0.023750 -0.950000
vn -1.0000 -0.0000 -0.0000
vn -0.0000 -0.0000 -1.0000
vn 1.0000 -0.0000 -0.0000
vn -0.0000 -0.0000 1.0000
vn 0.0250 0.9997 -0.0000
vn -0.0000 0.9997 -0.0250
vn 0.0250 -0.9997 -0.0000
vn -0.0250 -0.9997 -0.0000
vn -0.0000 0.9997 0.0250
vn -0.0000 -0.9997 -0.0250
vn -0.0250 0.9997 -0.0000
vn -0.0000 -0.9997 0.0250
vt 0.375000 0.000000
vt 0.625000 0.000000
vt 0.625000 0.250000
vt 0.375000 0.250000
vt 0.625000 0.500000
vt 0.375000 0.500000
vt 0.625000 0.750000
vt 0.375000 0.750000
vt 0.625000 1.000000
vt 0.375000 1.000000
s 0
f 1/1/1 2/2/1 4/3/1 3/4/1
f 3/4/2 4/3/2 8/5/2 7/6/2
f 7/6/3 8/5/3 6/7/3 5/8/3
f 5/8/4 6/7/4 2/9/4 1/10/4
f 4/3/5 2/2/5 10/2/5 12/3/5
f 2/9/6 6/7/6 14/7/6 10/9/6
f 1/1/7 3/4/7 11/4/7 9/1/7
f 7/6/8 5/8/8 13/8/8 15/6/8
f 8/5/9 4/3/9 12/3/9 16/5/9
f 5/8/10 1/10/10 9/10/10 13/8/10
f 6/7/11 8/5/11 16/5/11 14/7/11
f 3/4/12 7/6/12 15/6/12 11/4/12
f 15/6/4 16/5/4 12/3/4 11/4/4
f 11/4/3 12/3/3 10/2/3 9/1/3
f 9/1/2 10/2/2 14/7/2 13/8/2
f 13/8/1 14/7/1 16/5/1 15/6/1
