# Blender 4.1.1
# www.blender.org
mtllib orange.mtl
o Gemstone_04.001
v -0.564973 0.079955 -0.247542
v -0.564973 0.079955 -0.247542
v -0.564973 0.079955 -0.247542
v -0.564973 0.079955 -0.247542
v -0.564973 -0.042711 0.256603
v -0.564973 -0.042711 0.256603
v -0.564973 -0.042711 0.256603
v -0.564973 -0.042711 0.256603
v -0.411068 0.115013 -0.395886
v -0.411068 0.115013 -0.395886
v -0.411068 0.115013 -0.395886
v -0.411068 0.115013 -0.395886
v -0.511818 0.132781 -0.198447
v -0.511818 0.132781 -0.198447
v -0.511818 0.132781 -0.198447
v -0.511818 0.132781 -0.198447
v -0.564973 0.042715 -0.256603
v -0.564973 0.042715 -0.256603
v -0.564973 0.042715 -0.256603
v -0.564973 0.042715 -0.256603
v -0.564973 -0.079951 0.247542
v -0.564973 -0.079951 0.247542
v -0.564973 -0.079951 0.247542
v -0.564973 -0.079951 0.247542
v -0.411068 0.079729 -0.404471
v -0.411068 0.079729 -0.404471
v -0.411068 0.079729 -0.404471
v -0.411068 0.079729 -0.404471
v -0.511818 -0.026762 -0.237266
v -0.511818 -0.026762 -0.237266
v -0.511818 -0.026762 -0.237266
v -0.511818 -0.026762 -0.237266
v -0.511817 -0.132778 0.198447
v -0.511817 -0.132778 0.198447
v -0.511817 -0.132778 0.198447
v -0.511817 -0.132778 0.198447
v -0.377179 0.004880 -0.367310
v -0.377179 0.004880 -0.367310
v -0.377179 0.004880 -0.367310
v -0.377179 0.004880 -0.367310
v -0.408136 -0.089334 -0.185543
v -0.408136 -0.089334 -0.185543
v -0.408136 -0.089334 -0.185543
v -0.408135 -0.164592 0.123758
v -0.408135 -0.164592 0.123758
v -0.408135 -0.164592 0.123758
v -0.312669 -0.066729 -0.278451
v -0.312669 -0.066729 -0.278451
v -0.312669 -0.066729 -0.278451
v 0.312669 -0.066728 -0.278451
v 0.312669 -0.066728 -0.278451
v 0.312669 -0.066728 -0.278451
v 0.408135 -0.089334 -0.185543
v 0.408135 -0.089334 -0.185543
v 0.408135 -0.089334 -0.185543
v 0.377179 0.004880 -0.367311
v 0.377179 0.004880 -0.367311
v 0.377179 0.004880 -0.367311
v 0.377179 0.004880 -0.367311
v 0.511817 -0.026762 -0.237267
v 0.511817 -0.026762 -0.237267
v 0.511817 -0.026762 -0.237267
v 0.511817 -0.026762 -0.237267
v 0.411068 0.079729 -0.404472
v 0.411068 0.079729 -0.404472
v 0.411068 0.079729 -0.404472
v 0.411068 0.079729 -0.404472
v 0.564973 0.042715 -0.256604
v 0.564973 0.042715 -0.256604
v 0.564973 0.042715 -0.256604
v 0.564973 0.042715 -0.256604
v 0.411068 0.115013 -0.395887
v 0.411068 0.115013 -0.395887
v 0.411068 0.115013 -0.395887
v 0.411068 0.115013 -0.395887
v 0.564973 0.079955 -0.247543
v 0.564973 0.079955 -0.247543
v 0.564973 0.079955 -0.247543
v 0.564973 0.079955 -0.247543
v 0.377179 0.164422 -0.328492
v 0.377179 0.164422 -0.328492
v 0.377179 0.164422 -0.328492
v 0.377179 0.164422 -0.328492
v -0.377179 0.164422 -0.328491
v -0.377179 0.164422 -0.328491
v -0.377179 0.164422 -0.328491
v -0.377179 0.164422 -0.328491
v 0.511817 0.132781 -0.198448
v 0.511817 0.132781 -0.198448
v 0.511817 0.132781 -0.198448
v 0.511817 0.132781 -0.198448
v 0.312669 0.187201 -0.216666
v 0.312669 0.187201 -0.216666
v 0.312669 0.187201 -0.216666
v -0.312669 0.187201 -0.216666
v -0.312669 0.187201 -0.216666
v -0.312669 0.187201 -0.216666
v 0.408135 0.164595 -0.123758
v 0.408135 0.164595 -0.123758
v 0.408135 0.164595 -0.123758
v 0.408136 0.089338 0.185543
v 0.408136 0.089338 0.185543
v 0.408136 0.089338 0.185543
v 0.312669 0.066732 0.278450
v 0.312669 0.066732 0.278450
v 0.312669 0.066732 0.278450
v 0.511818 0.026765 0.237266
v 0.511818 0.026765 0.237266
v 0.511818 0.026765 0.237266
v 0.511818 0.026765 0.237266
v 0.377179 -0.004877 0.367310
v 0.377179 -0.004877 0.367310
v 0.377179 -0.004877 0.367310
v 0.377179 -0.004877 0.367310
v 0.564973 -0.042711 0.256603
v 0.564973 -0.042711 0.256603
v 0.564973 -0.042711 0.256603
v 0.564973 -0.042711 0.256603
v 0.411068 -0.079726 0.404471
v 0.411068 -0.079726 0.404471
v 0.411068 -0.079726 0.404471
v 0.411068 -0.079726 0.404471
v 0.564973 -0.079951 0.247542
v 0.564973 -0.079951 0.247542
v 0.564973 -0.079951 0.247542
v 0.564973 -0.079951 0.247542
v 0.411068 -0.115010 0.395886
v 0.411068 -0.115010 0.395886
v 0.411068 -0.115010 0.395886
v 0.411068 -0.115010 0.395886
v 0.511818 -0.132777 0.198447
v 0.511818 -0.132777 0.198447
v 0.511818 -0.132777 0.198447
v 0.511818 -0.132777 0.198447
v 0.377179 -0.164419 0.328491
v 0.377179 -0.164419 0.328491
v 0.377179 -0.164419 0.328491
v 0.377179 -0.164419 0.328491
v 0.408136 -0.164592 0.123758
v 0.408136 -0.164592 0.123758
v 0.408136 -0.164592 0.123758
v 0.312669 -0.187198 0.216665
v 0.312669 -0.187198 0.216665
v 0.312669 -0.187198 0.216665
v -0.312669 -0.187198 0.216666
v -0.312669 -0.187198 0.216666
v -0.312669 -0.187198 0.216666
v -0.377179 -0.164419 0.328491
v -0.377179 -0.164419 0.328491
v -0.377179 -0.164419 0.328491
v -0.377179 -0.164419 0.328491
v -0.411068 -0.115010 0.395886
v -0.411068 -0.115010 0.395886
v -0.411068 -0.115010 0.395886
v -0.411068 -0.115010 0.395886
v -0.411068 -0.079726 0.404471
v -0.411068 -0.079726 0.404471
v -0.411068 -0.079726 0.404471
v -0.411068 -0.079726 0.404471
v -0.377179 -0.004876 0.367310
v -0.377179 -0.004876 0.367310
v -0.377179 -0.004876 0.367310
v -0.377179 -0.004876 0.367310
v -0.511817 0.026765 0.237267
v -0.511817 0.026765 0.237267
v -0.511817 0.026765 0.237267
v -0.511817 0.026765 0.237267
v -0.312669 0.066732 0.278451
v -0.312669 0.066732 0.278451
v -0.312669 0.066732 0.278451
v -0.408135 0.089338 0.185543
v -0.408135 0.089338 0.185543
v -0.408135 0.089338 0.185543
v -0.408136 0.164595 -0.123758
v -0.408136 0.164595 -0.123758
v -0.408136 0.164595 -0.123758
vn -1.0000 -0.0000 -0.0000
vn -0.7640 0.6270 0.1525
vn -0.5015 0.8006 -0.3279
vn -0.7037 0.1680 -0.6904
vn -0.7640 -0.6270 -0.1525
vn -0.5015 -0.5605 -0.6591
vn -0.5015 -0.5604 -0.6591
vn -0.4242 -0.8799 -0.2141
vn -0.2671 -0.8362 -0.4789
vn -0.2669 -0.8363 -0.4789
vn -0.2668 -0.8363 -0.4789
vn -0.0000 -0.9717 -0.2364
vn -0.0000 -0.7786 -0.6275
vn 0.2669 -0.8364 -0.4787
vn 0.2669 -0.8363 -0.4789
vn 0.2669 -0.8363 -0.4790
vn -0.0000 -0.4447 -0.8957
vn 0.5015 -0.5604 -0.6591
vn 0.5015 -0.5605 -0.6591
vn -0.0000 0.2364 -0.9717
vn 0.7037 0.1680 -0.6904
vn -0.0000 0.8065 -0.5913
vn 0.5015 0.8006 -0.3279
vn -0.0000 0.9799 -0.1996
vn 0.2669 0.9629 -0.0410
vn 0.2669 0.9628 -0.0412
vn 0.2669 0.9628 -0.0413
vn 0.2669 0.9628 -0.0411
vn -0.0000 0.9717 0.2364
vn 0.4242 0.8799 0.2141
vn 0.2669 0.8364 0.4787
vn 0.2669 0.8363 0.4788
vn 0.2669 0.8363 0.4790
vn 0.2669 0.8363 0.4789
vn 0.5015 0.5605 0.6591
vn 0.5015 0.5604 0.6591
vn 0.7640 0.6270 0.1525
vn 0.7037 -0.1680 0.6904
vn 1.0000 -0.0000 -0.0000
vn 0.5015 -0.8006 0.3279
vn 0.7640 -0.6270 -0.1525
vn 0.2671 -0.9628 0.0412
vn 0.2670 -0.9628 0.0412
vn 0.2668 -0.9629 0.0412
vn 0.2668 -0.9629 0.0411
vn 0.4242 -0.8799 -0.2141
vn -0.0000 -0.9799 0.1996
vn -0.2669 -0.9629 0.0410
vn -0.2669 -0.9628 0.0411
vn -0.2669 -0.9628 0.0413
vn -0.5015 -0.8006 0.3279
vn -0.0000 -0.8065 0.5913
vn -0.7037 -0.1680 0.6904
vn -0.0000 -0.2364 0.9717
vn -0.5015 0.5604 0.6591
vn -0.5015 0.5605 0.6591
vn -0.0000 0.4447 0.8957
vn -0.2671 0.8362 0.4789
vn -0.2669 0.8363 0.4789
vn -0.2668 0.8363 0.4789
vn -0.0000 0.7786 0.6275
vn -0.4242 0.8799 0.2141
vn -0.2669 0.9629 -0.0410
vn -0.2669 0.9628 -0.0411
vn -0.2669 0.9628 -0.0413
vn -0.2669 0.9628 -0.0412
vt 0.050770 0.323484
vt 0.056229 0.312478
vt 0.192564 0.314650
vt 0.197153 0.326088
vt 0.068899 0.291227
vt 0.179467 0.292698
vt 0.236543 0.272070
vt 0.213905 0.259098
vt 0.246958 0.277405
vt 0.295651 0.307113
vt 0.308651 0.284946
vt 0.422037 0.285459
vt 0.435017 0.306970
vt 0.252126 0.262188
vt 0.273639 0.250206
vt 0.326083 0.256345
vt 0.405072 0.256562
vt 0.302462 0.232453
vt 0.302946 0.078024
vt 0.326795 0.054161
vt 0.406151 0.054402
vt 0.429679 0.078491
vt 0.428738 0.232840
vt 0.274198 0.059826
vt 0.309835 0.025138
vt 0.252126 0.047693
vt 0.296861 0.002584
vt 0.236455 0.058268
vt 0.246958 0.053784
vt 0.193313 0.016194
vt 0.198772 0.005187
vt 0.214415 0.070572
vt 0.180643 0.037444
vt 0.185794 0.241439
vt 0.186415 0.088194
vt 0.163857 0.065045
vt 0.162616 0.264471
vt 0.085685 0.263626
vt 0.063127 0.240478
vt 0.063748 0.087233
vt 0.086926 0.064201
vt 0.070075 0.035973
vt 0.035636 0.069573
vt 0.012999 0.056601
vt 0.056977 0.014022
vt 0.052389 0.002584
vt 0.002584 0.051266
vt 0.480533 0.049409
vt 0.458482 0.061036
vt 0.423969 0.025553
vt 0.437453 0.004007
vt 0.457282 0.250978
vt 0.478521 0.263036
vt 0.002584 0.274888
vt 0.013087 0.270404
vt 0.035127 0.258099
s 0
usemtl V_04.001
f 24/1/1 8/2/1 4/3/1
f 24/1/1 4/3/1 20/4/1
f 3/3/2 7/2/2 167/5/2
f 3/3/2 167/5/2 16/6/2
s 1
f 11/7/3 1/3/3 15/6/3
f 11/7/3 15/6/3 87/8/3
s 0
f 18/4/4 2/3/4 12/7/4
f 18/4/4 12/7/4 28/9/4
f 19/10/5 32/11/5 36/12/5
f 19/10/5 36/12/5 23/13/5
s 1
f 27/14/6 40/15/7 31/11/6
f 27/14/6 31/11/6 17/10/6
s 0
f 30/11/8 43/16/8 46/17/8
f 30/11/8 46/17/8 34/12/8
s 1
f 39/15/9 49/18/10 42/16/11
f 39/15/9 42/16/11 29/11/11
s 0
f 41/16/12 48/18/12 51/19/12
f 51/19/12 53/20/12 139/21/12
f 139/21/12 143/22/12 146/23/12
f 146/23/12 44/17/12 41/16/12
f 41/16/12 51/19/12 139/21/12
f 139/21/12 146/23/12 41/16/12
f 57/24/13 50/19/13 47/18/13
f 57/24/13 47/18/13 38/15/13
s 1
f 60/25/14 54/20/15 52/19/16
f 60/25/14 52/19/16 58/24/15
s 0
f 65/26/17 56/24/17 37/15/17
f 65/26/17 37/15/17 26/14/17
s 1
f 68/27/18 62/25/19 59/24/19
f 68/27/18 59/24/19 66/26/19
s 0
f 25/9/20 9/7/20 72/28/20
f 25/9/20 72/28/20 64/29/20
f 67/29/21 75/28/21 77/30/21
f 67/29/21 77/30/21 69/31/21
f 73/28/22 10/7/22 84/8/22
f 73/28/22 84/8/22 80/32/22
s 1
f 76/30/23 74/28/23 83/32/23
f 76/30/23 83/32/23 90/33/23
s 0
f 85/8/24 95/34/24 92/35/24
f 85/8/24 92/35/24 81/32/24
s 1
f 88/33/25 82/32/26 94/35/27
f 88/33/25 94/35/27 99/36/28
s 0
f 93/35/29 96/34/29 174/37/29
f 174/37/29 171/38/29 169/39/29
f 169/39/29 105/40/29 101/41/29
f 101/41/29 98/36/29 93/35/29
f 93/35/29 174/37/29 169/39/29
f 169/39/29 101/41/29 93/35/29
f 89/33/30 100/36/30 103/41/30
f 89/33/30 103/41/30 108/42/30
s 1
f 107/42/31 102/41/32 106/40/33
f 107/42/31 106/40/33 113/43/34
f 121/44/35 115/45/35 109/42/35
f 121/44/35 109/42/35 114/43/36
s 0
f 117/45/37 78/30/37 91/33/37
f 117/45/37 91/33/37 110/42/37
f 124/46/38 116/45/38 122/44/38
f 124/46/38 122/44/38 130/47/38
f 71/31/39 79/30/39 118/45/39
f 71/31/39 118/45/39 126/46/39
s 1
f 129/48/40 138/49/40 133/50/40
f 129/48/40 133/50/40 123/51/40
s 0
f 125/51/41 134/50/41 63/25/41
f 125/51/41 63/25/41 70/27/41
s 1
f 137/49/42 144/22/43 140/21/44
f 137/49/42 140/21/44 131/50/45
s 0
f 132/50/46 141/21/46 55/20/46
f 132/50/46 55/20/46 61/25/46
f 149/52/47 145/23/47 142/22/47
f 149/52/47 142/22/47 136/49/47
s 1
f 33/12/48 45/17/49 147/23/50
f 33/12/48 147/23/50 150/52/49
f 21/13/51 35/12/51 151/52/51
f 21/13/51 151/52/51 154/53/51
s 0
f 153/53/52 148/52/52 135/49/52
f 153/53/52 135/49/52 128/48/52
f 155/54/53 159/55/53 6/2/53
f 155/54/53 6/2/53 22/1/53
f 127/47/54 119/44/54 156/55/54
f 127/47/54 156/55/54 152/54/54
s 1
f 5/2/55 158/55/56 163/56/56
f 5/2/55 163/56/56 166/5/56
s 0
f 157/55/57 120/44/57 111/43/57
f 157/55/57 111/43/57 160/56/57
s 1
f 162/56/58 170/39/59 172/38/60
f 162/56/58 172/38/60 164/5/60
s 0
f 112/43/61 104/40/61 168/39/61
f 112/43/61 168/39/61 161/56/61
f 165/5/62 173/38/62 176/37/62
f 165/5/62 176/37/62 14/6/62
s 1
f 13/6/63 175/37/64 97/34/65
f 13/6/63 97/34/65 86/8/66
